User Type,Username,Date,Text
[T],CODYBOSS1969,2011-05-02T11:07Z,"This is the correct and complete MediaInfo for the sample of this one [ THE DESCRIPTION IS INCORRECT !!!]:

General
Complete name                    : Tucker & Dale vs Evil[2010]DVDRip XviD-ExtraTorrentRG\SaMple.avi
Format                           : AVI
Format/Info                      : Audio Video Interleave
File size                        : 4.29 MiB
Duration                         : 28s 320ms
Overall bit rate                 : 1 271 Kbps
Writing library                  : VirtualDub build 32842/release

Video
ID                               : 0
Format                           : MPEG-4 Visual
Format profile                   : Advanced Simple@L5
Format settings, BVOP            : 2
Format settings, QPel            : No
Format settings, GMC             : No warppoints
Format settings, Matrix          : Default (H.263)
Muxing mode                      : Packed bitstream
Codec ID                         : XVID
Codec ID/Hint                    : XviD
Duration                         : 28s 320ms
Bit rate                         : 1 133 Kbps
Width                            : 640 pixels
Height                           : 272 pixels
Display aspect ratio             : 2.35:1
Frame rate                       : 25.000 fps
Color space                      : YUV
Chroma subsampling               : 4:2:0
Bit depth                        : 8 bits
Scan type                        : Progressive
Compression mode                 : Lossy
Bits/(Pixel*Frame)               : 0.260
Stream size                      : 3.83 MiB (89%)
Writing library                  : XviD 62

Audio
ID                               : 1
Format                           : MPEG Audio
Format version                   : Version 1
Format profile                   : Layer 3
Mode                             : Joint stereo
Mode extension                   : MS Stereo
Codec ID                         : 55
Codec ID/Hint                    : MP3
Duration                         : 28s 320ms
Bit rate mode                    : Variable
Bit rate                         : 121 Kbps
Channel(s)                       : 2 channels
Sampling rate                    : 48.0 KHz
Compression mode                 : Lossy
Stream size                      : 423 KiB (10%)
Alignment                        : Aligned on interleaves
Interleave, duration             : 24 ms (0.60 video frame)
Interleave, preload duration     : 519 ms
Writing library                  : LAME3.98.3

IT'S NOT 720x304 but it's TRUE that AT A LOWER RESOLUTION THE  QualityFactor IT'S HIGHER!!!


CHEERS SaM !!!"
,Chadly,2011-05-02T22:52Z,This movie is awesome :) I luv it :)
[V],SaM,2011-05-03T12:21Z,"res is 640x272
it was by mistake written as 720x304,but the edit button is not working.
thanks for the correction m8"
